<svg xmlns="http://www.w3.org/2000/svg" viewBox="0 0 273.81 44.37"><defs><style>.cls-1{fill:#8ec741;}.cls-2{fill:#46974b;}</style></defs><g id="Layer_2" data-name="Layer 2"><g id="레이어_1" data-name="레이어 1"><path class="cls-1" d="M36.3,8.07A16.13,16.13,0,0,0,20.17,24.2v8.07a8.07,8.07,0,1,0,16.13,0Z"/><path class="cls-2" d="M0,28.24A16.13,16.13,0,0,0,16.13,44.37V8.07A8.07,8.07,0,1,0,0,8.07Z"/><path class="cls-1" d="M157.67,1.67a1,1,0,0,1,.76.31,1,1,0,0,1,.31.76.53.53,0,0,1-.46.56,1.45,1.45,0,0,1,.75.47,1.56,1.56,0,0,1,.43,1.17,1.83,1.83,0,0,1-.53,1.3,1.47,1.47,0,0,1-1,.52h-1.3V1.67Zm-.38.66v.8h.43A.41.41,0,0,0,158,3a.38.38,0,0,0,.11-.28.41.41,0,0,0-.12-.3.44.44,0,0,0-.3-.11Zm0,1.48V6.1h.65a.9.9,0,0,0,.51-.33,1.14,1.14,0,0,0,.33-.82,1.11,1.11,0,0,0-.33-.8,1.09,1.09,0,0,0-.8-.33Z"/><path class="cls-1" d="M162.08,1.67l1.85,5.09h-.7L162.58,5h-1.35l-.66,1.8h-.7l1.85-5.09Zm.26,2.63-.44-1.19-.43,1.19Z"/><path class="cls-1" d="M165.83,5.13h-.6V6.76h-.66V1.67H166a1.76,1.76,0,0,1,1,.5,1.71,1.71,0,0,1,.5,1.23,1.71,1.71,0,0,1-.5,1.23,1.54,1.54,0,0,1-.54.39l1.13,1.74h-.8Zm-.6-2.8V4.47h.6a1,1,0,0,0,.76-.31,1.08,1.08,0,0,0,.31-.76,1.07,1.07,0,0,0-.31-.76,1,1,0,0,0-.76-.31Z"/><path class="cls-1" d="M172.67,2.36a2.53,2.53,0,0,1,.77,1.85,2.51,2.51,0,0,1-.77,1.84,2.58,2.58,0,0,1-3.68,0,2.51,2.51,0,0,1-.77-1.84A2.53,2.53,0,0,1,169,2.36a2.61,2.61,0,0,1,3.68,0Zm-1.84-.09a1.91,1.91,0,0,0-1.94,1.94,1.86,1.86,0,0,0,.57,1.37,1.93,1.93,0,0,0,2.74,0,1.86,1.86,0,0,0,.57-1.37,1.93,1.93,0,0,0-1.94-1.94Z"/><path class="cls-1" d="M177.23,4.65V6.76h-.66V1.67h.66V4h1.57V1.67h.66V6.76h-.66V4.65Z"/><path class="cls-1" d="M184.79,2.36a2.52,2.52,0,0,1,.76,1.85,2.5,2.5,0,0,1-.76,1.84,2.6,2.6,0,0,1-3.69,0,2.5,2.5,0,0,1-.76-1.84,2.52,2.52,0,0,1,.76-1.85,2.62,2.62,0,0,1,3.69,0ZM183,2.27a1.91,1.91,0,0,0-1.38.56A1.88,1.88,0,0,0,181,4.21a1.86,1.86,0,0,0,.57,1.37,1.94,1.94,0,0,0,2.75,0,1.86,1.86,0,0,0,.57-1.37,1.88,1.88,0,0,0-.57-1.38A1.9,1.9,0,0,0,183,2.27Z"/><path class="cls-1" d="M187.73,4.15a2.24,2.24,0,0,1-.88-.52,1.13,1.13,0,0,1-.33-.83,1.14,1.14,0,0,1,.34-.84,1.19,1.19,0,0,1,.85-.35,1.15,1.15,0,0,1,.84.35,1.44,1.44,0,0,1,.33.61l-.6.23a1.43,1.43,0,0,0-.19-.38.54.54,0,0,0-.38-.15.52.52,0,0,0-.38.15.53.53,0,0,0-.16.38.55.55,0,0,0,.16.38,1.81,1.81,0,0,0,.48.31,2.62,2.62,0,0,1,1,.61,1.58,1.58,0,0,1,0,2.25,1.57,1.57,0,0,1-2.24,0,1.81,1.81,0,0,1-.48-1l.64-.23a1.32,1.32,0,0,0,.3.8.94.94,0,0,0,1.32,0,.94.94,0,0,0,.27-.67.89.89,0,0,0-.27-.65A1.87,1.87,0,0,0,187.73,4.15Z"/><path class="cls-1" d="M190.6,5.13V6.76h-.66V1.67h1.45a1.73,1.73,0,0,1,1,.5,1.68,1.68,0,0,1,.51,1.23,1.64,1.64,0,0,1-.51,1.22,1.64,1.64,0,0,1-1.22.51Zm0-2.8V4.47h.6a1,1,0,0,0,.75-.31,1.05,1.05,0,0,0,.32-.76,1,1,0,0,0-.32-.76,1,1,0,0,0-.75-.31Z"/><path class="cls-1" d="M194.31,1.67V6.76h-.66V1.67Z"/><path class="cls-1" d="M196.86,2.33V6.76h-.66V2.33H195V1.67h3v.66Z"/><path class="cls-1" d="M200.35,1.67l1.85,5.09h-.7L200.84,5h-1.35l-.65,1.8h-.7L200,1.67Zm.25,2.63-.43-1.19-.44,1.19Z"/><path class="cls-1" d="M202.84,6.76V1.67h.65V6.1h1.83v.66Z"/><path class="cls-1" d="M210,3.22A1.81,1.81,0,0,1,211.77,5a1.79,1.79,0,0,1-.53,1.29A1.82,1.82,0,0,1,208.14,5a1.72,1.72,0,0,1,.54-1.28A1.75,1.75,0,0,1,210,3.22Zm-.81,1a1.15,1.15,0,0,0,0,1.61A1.14,1.14,0,0,0,211.09,5a1.14,1.14,0,0,0-1.94-.8Z"/><path class="cls-1" d="M213.3,4.14V6.77h-.67V4.14h-.29V3.48h.29V2.89a1.06,1.06,0,0,1,.32-.7,1,1,0,0,1,.69-.28,2.19,2.19,0,0,1,.6.14l-.22.62a1.63,1.63,0,0,0-.35-.11.36.36,0,0,0-.26.11.34.34,0,0,0-.11.25v.56h.59v.66Z"/><path class="cls-1" d="M217.44,4.36v2.4h-.66V1.67h.66v1.6l1.2-1.6h.84l-1.57,2.09,2,3h-.8L217.49,4.3Z"/><path class="cls-1" d="M224.7,2.36a2.52,2.52,0,0,1,.76,1.85,2.5,2.5,0,0,1-.76,1.84,2.6,2.6,0,0,1-3.69,0,2.5,2.5,0,0,1-.76-1.84A2.52,2.52,0,0,1,221,2.36a2.62,2.62,0,0,1,3.69,0Zm-1.84-.09a1.91,1.91,0,0,0-1.38.56,1.88,1.88,0,0,0-.57,1.38,1.86,1.86,0,0,0,.57,1.37,1.94,1.94,0,0,0,2.75,0,1.86,1.86,0,0,0,.57-1.37,1.88,1.88,0,0,0-.57-1.38A1.9,1.9,0,0,0,222.86,2.27Z"/><path class="cls-1" d="M227.6,5.13H227V6.76h-.66V1.67h1.45a1.76,1.76,0,0,1,1,.5,1.71,1.71,0,0,1,.5,1.23,1.71,1.71,0,0,1-.5,1.23,1.45,1.45,0,0,1-.54.39l1.13,1.74h-.8Zm-.6-2.8V4.47h.6a1,1,0,0,0,.76-.31,1,1,0,0,0,.31-.76,1.06,1.06,0,0,0-1.07-1.07Z"/><path class="cls-1" d="M232.82,1.67v.66h-2.09V3.88h2.09v.66h-2.09V6.1h2.09v.66h-2.75V1.67Z"/><path class="cls-1" d="M235.58,1.67l1.86,5.09h-.7L236.08,5h-1.35l-.65,1.8h-.71l1.86-5.09Zm.26,2.63-.43-1.19L235,4.3Z"/><path class="cls-1" d="M238.07,1.67h.61l2.1,3.63V1.67h.66V6.76h-.57l-2.14-3.68V6.76h-.66Z"/><path class="cls-1" d="M245.41,1.67l1.65,2.85,1.65-2.85h.6V6.76h-.66V3.08l-1.59,2.75-1.59-2.75V6.76h-.66V1.67Z"/><path class="cls-1" d="M253.17,1.67v.66h-2.09V3.88h2.09v.66h-2.09V6.1h2.09v.66h-2.75V1.67Z"/><path class="cls-1" d="M254.53,1.67a2.61,2.61,0,0,1,1.93.7,2.52,2.52,0,0,1,.76,1.85,2.51,2.51,0,0,1-.76,1.84,2.61,2.61,0,0,1-1.93.7H254V1.67Zm.17.67V6.09a1.71,1.71,0,0,0,1.29-.5,1.87,1.87,0,0,0,.57-1.37A1.88,1.88,0,0,0,256,2.84,1.75,1.75,0,0,0,254.7,2.34Z"/><path class="cls-1" d="M258.75,1.67V6.76h-.66V1.67Z"/><path class="cls-1" d="M263.71,5.55l.49.44a2.81,2.81,0,0,1-1.91.83,2.59,2.59,0,0,1-2.6-2.6,2.52,2.52,0,0,1,.76-1.85,2.5,2.5,0,0,1,1.84-.76,2.84,2.84,0,0,1,1.91.82l-.49.45a2.13,2.13,0,0,0-1.42-.6,1.87,1.87,0,0,0-1.37.57,1.84,1.84,0,0,0-.57,1.37,1.93,1.93,0,0,0,1.94,1.93A2.13,2.13,0,0,0,263.71,5.55Z"/><path class="cls-1" d="M265.72,1.67V6.76h-.66V1.67Z"/><path class="cls-1" d="M266.74,1.67h.6l2.11,3.63V1.67h.66V6.76h-.58L267.4,3.08V6.76h-.66Z"/><path class="cls-1" d="M273.81,1.67v.66h-2.09V3.88h2.09v.66h-2.09V6.1h2.09v.66h-2.75V1.67Z"/><path class="cls-2" d="M61.07,34.21v5.48a2.07,2.07,0,0,1-.78,1.61A2.68,2.68,0,0,1,58.5,42H54.71V34.21H46.26a2.17,2.17,0,0,1-1.5-.45,1.87,1.87,0,0,1-.5-1.46V29.39H71.12V32.3a1.91,1.91,0,0,1-.5,1.46,2.21,2.21,0,0,1-1.51.45ZM69.58,26a1.69,1.69,0,0,1-.45,1.31,2,2,0,0,1-1.36.41H47.64a2,2,0,0,1-1.36-.41A1.66,1.66,0,0,1,45.82,26V13.2h6.39V16h11V13.2h6.38ZM63.2,23V20.81h-11V23Z"/><path class="cls-2" d="M82.36,26.76a7.78,7.78,0,0,1-3.76,2.86,13.45,13.45,0,0,1-4.92,1.11V25.6a6.32,6.32,0,0,0,3.67-1.82q1.47-1.37,1.69-4.94h-3.6a1.7,1.7,0,0,1-1.29-.41,1.9,1.9,0,0,1-.37-1.31V14h5.29V11.29h6.48V14h5v3.17a2,2,0,0,1-.36,1.31,1.65,1.65,0,0,1-1.27.41H85.58c.12,2.38.64,4,1.53,4.94a6,6,0,0,0,3.6,1.82v5.13a12.75,12.75,0,0,1-4.82-1.11A6.93,6.93,0,0,1,82.36,26.76ZM78.25,42a2.12,2.12,0,0,1-1.51-.51A1.9,1.9,0,0,1,76.19,40V31.7h6.38v5.42h16.1V40a1.88,1.88,0,0,1-.57,1.46,2.19,2.19,0,0,1-1.53.51ZM98.57,31.52a2,2,0,0,1-.66,1.55,2.56,2.56,0,0,1-1.75.58H92.22V24H90.09a1.81,1.81,0,0,1-1.29-.48,1.7,1.7,0,0,1-.5-1.27v-2.6h3.92V13.24h6.35Z"/><path class="cls-2" d="M109.68,13.33v9.86h2.45V13.33h6.38V39.72a2.16,2.16,0,0,1-.56,1.61,2.23,2.23,0,0,1-1.63.55h-10.8a2.23,2.23,0,0,1-1.63-.55,2.16,2.16,0,0,1-.56-1.61V13.33ZM112.13,37V28.17h-2.45V37Zm14.21-14h4.35v3.44A1.74,1.74,0,0,1,130,28a3.12,3.12,0,0,1-1.8.47h-1.88v9.51A4,4,0,0,1,122.27,42H120V13.24h6.36Z"/><path class="cls-2" d="M142.33,37.06V33.21h6.39v3.85h9.74v2.53a2.16,2.16,0,0,1-.69,1.69,2.56,2.56,0,0,1-1.79.63H134.26a2.56,2.56,0,0,1-1.77-.63,2.13,2.13,0,0,1-.7-1.69V37.06Zm14.44-13.49a1.62,1.62,0,0,1-.43,1.28,2,2,0,0,1-1.33.37h-15.4v2.2h17.78v3.06a1.67,1.67,0,0,1-.47,1.33,1.94,1.94,0,0,1-1.37.43H135.1a1.94,1.94,0,0,1-1.37-.43,1.67,1.67,0,0,1-.47-1.33V20.37h17.12V18.21H135a2,2,0,0,1-1.33-.37,1.63,1.63,0,0,1-.43-1.29V13.33h23.58Z"/><path class="cls-2" d="M166,13.89V11.33h6.32v2.56h5.39v3a1.69,1.69,0,0,1-.45,1.31,2,2,0,0,1-1.37.41H162a2,2,0,0,1-1.36-.41,1.69,1.69,0,0,1-.45-1.31v-3Zm-5.26,9.77a4.54,4.54,0,0,1,1-3.05A4,4,0,0,1,165,19.37h8.2a4,4,0,0,1,3.23,1.24,4.58,4.58,0,0,1,1,3.05v3a4.65,4.65,0,0,1-1,3.07A3.94,3.94,0,0,1,173.23,31H165a4,4,0,0,1-3.24-1.25,4.61,4.61,0,0,1-1-3.07ZM164.37,42a2.12,2.12,0,0,1-1.51-.51,1.9,1.9,0,0,1-.55-1.46V31.74h6.38v5.38h16.09V40a1.87,1.87,0,0,1-.56,1.46,2.19,2.19,0,0,1-1.53.51Zm6.77-16.71c0-.36-.1-.58-.29-.66a2,2,0,0,0-.78-.13h-1.69a3,3,0,0,0-.89.13q-.39.12-.39.66a.7.7,0,0,0,.39.72,2.48,2.48,0,0,0,.89.15h1.69a1.66,1.66,0,0,0,.78-.15A.77.77,0,0,0,171.14,25.29Zm13.52-6.14h4.13v3.57a1.64,1.64,0,0,1-.58,1.41,2.61,2.61,0,0,1-1.61.44h-1.94v6.92A2,2,0,0,1,184,33a2.58,2.58,0,0,1-1.75.57H178.3V13.24h6.36Z"/><path class="cls-2" d="M214.33,37.59A4.05,4.05,0,0,1,212.85,41a5.82,5.82,0,0,1-3.71,1.17H195.8A5.82,5.82,0,0,1,192.11,41a4,4,0,0,1-1.5-3.37V34.27a4,4,0,0,1,1.5-3.36,5.76,5.76,0,0,1,3.69-1.18h13.34a5.76,5.76,0,0,1,3.71,1.18,4,4,0,0,1,1.48,3.36ZM197,13.3v2.94h2.82V13.3h6.32V27.07a1.7,1.7,0,0,1-.45,1.32,2,2,0,0,1-1.36.4H192.45a2,2,0,0,1-1.36-.4,1.7,1.7,0,0,1-.45-1.32V13.3Zm0,10.64h2.82V21.12H197Zm11,11.83a1.21,1.21,0,0,0-.28-.81,1.82,1.82,0,0,0-1.29-.31h-7.82a1.81,1.81,0,0,0-1.27.31,1.13,1.13,0,0,0-.3.81V36a1.13,1.13,0,0,0,.3.82,1.81,1.81,0,0,0,1.27.31h7.82a1.82,1.82,0,0,0,1.29-.31A1.21,1.21,0,0,0,208,36Zm5.85-17.62h4.13v3.57a1.66,1.66,0,0,1-.57,1.41,2.66,2.66,0,0,1-1.62.44H213.8v3.31a2,2,0,0,1-.65,1.55,2.56,2.56,0,0,1-1.76.58h-3.94V13.24h6.35Z"/><path class="cls-2" d="M226.67,13.3v2.94h2.82V13.3h6.32v2.13h2.13V13.24h6.35V26.92a2,2,0,0,1-.65,1.54,2.56,2.56,0,0,1-1.76.58h-3.94V26.6h-2.13v.47a1.7,1.7,0,0,1-.45,1.32,2,2,0,0,1-1.37.4H222.13a2,2,0,0,1-1.36-.4,1.67,1.67,0,0,1-.46-1.32V13.3Zm18,24.29A4.06,4.06,0,0,1,243.15,41a5.82,5.82,0,0,1-3.71,1.17H226.11a5.83,5.83,0,0,1-3.7-1.17,4,4,0,0,1-1.5-3.37V34.27a4,4,0,0,1,1.5-3.36,5.77,5.77,0,0,1,3.7-1.18h13.33a5.76,5.76,0,0,1,3.71,1.18,4,4,0,0,1,1.49,3.36Zm-18-13.65h2.82V21.12h-2.82Zm11.58,11.83A1.16,1.16,0,0,0,238,35a1.8,1.8,0,0,0-1.28-.31h-7.83a1.81,1.81,0,0,0-1.27.31,1.13,1.13,0,0,0-.3.81V36a1.13,1.13,0,0,0,.3.82,1.81,1.81,0,0,0,1.27.31h7.83a1.8,1.8,0,0,0,1.28-.31,1.17,1.17,0,0,0,.28-.82Zm-2.44-15.65v1.82h2.13V20.12Z"/><path class="cls-2" d="M263.42,25.57a14,14,0,0,0,2-.13,6.1,6.1,0,0,0,1.36-.28V29a7.41,7.41,0,0,1-1.44.28,15.13,15.13,0,0,1-2.07.13h-3.32v1.94a1.51,1.51,0,0,1-.47,1.22A2.15,2.15,0,0,1,258,33h-4.44V29.39h-3a2.45,2.45,0,0,1-1.64-.53,1.93,1.93,0,0,1-.61-1.54V25.57Zm-9-.69a5.9,5.9,0,0,1-4.17-1.27,4.16,4.16,0,0,1-1.34-3.18V17.12a4.17,4.17,0,0,1,1.34-3.2,6,6,0,0,1,4.17-1.25h6a6,6,0,0,1,4.16,1.25,4.18,4.18,0,0,1,1.35,3.2v3.31a4.16,4.16,0,0,1-1.35,3.18,5.87,5.87,0,0,1-4.16,1.27ZM253,42a2.13,2.13,0,0,1-1.52-.51A1.9,1.9,0,0,1,251,40V33.61h6.39v3.51h16.46V40a1.87,1.87,0,0,1-.56,1.46,2.21,2.21,0,0,1-1.53.51Zm5.29-21.69a1.58,1.58,0,0,0,1.19-.33,1.17,1.17,0,0,0,.28-.8v-.87a1.17,1.17,0,0,0-.28-.8,1.58,1.58,0,0,0-1.19-.33H256.6a1.55,1.55,0,0,0-1.19.33,1.17,1.17,0,0,0-.29.8v.87a1.17,1.17,0,0,0,.29.8,1.55,1.55,0,0,0,1.19.33Zm15.37,12.46a2,2,0,0,1-.66,1.55,2.58,2.58,0,0,1-1.75.58h-3.85V33.58h-4.32a1.79,1.79,0,0,1-1.29-.48,1.72,1.72,0,0,1-.5-1.27V30h6.11V13.2h6.26Z"/></g></g></svg>