<svg xmlns="http://www.w3.org/2000/svg" viewBox="0 0 139.55 151.81"><defs><style>.cls-1{fill:#46974b;}.cls-2{fill:#8ec741;}</style></defs><g id="Layer_2" data-name="Layer 2"><g id="레이어_1" data-name="레이어 1"><path class="cls-1" d="M10.22,136.21v3.33a1.24,1.24,0,0,1-.48,1,1.6,1.6,0,0,1-1.08.41H6.36v-4.72H1.22a1.32,1.32,0,0,1-.92-.28,1.14,1.14,0,0,1-.3-.88v-1.77H16.33v1.77a1.11,1.11,0,0,1-.31.88,1.27,1.27,0,0,1-.91.28Zm5.18-5a1,1,0,0,1-.28.8,1.18,1.18,0,0,1-.83.25H2.06a1.18,1.18,0,0,1-.83-.25,1,1,0,0,1-.28-.8v-7.8H4.83v1.71h6.68v-1.71H15.4Zm-3.89-1.86v-1.32H4.83v1.32Z"/><path class="cls-1" d="M23.16,131.68a4.76,4.76,0,0,1-2.28,1.74,8.37,8.37,0,0,1-3,.68V131a3.78,3.78,0,0,0,2.23-1.1,4.47,4.47,0,0,0,1-3H19a1.08,1.08,0,0,1-.79-.24,1.18,1.18,0,0,1-.22-.8v-1.93h3.21v-1.61H25.1v1.61h3v1.93a1.23,1.23,0,0,1-.22.8,1,1,0,0,1-.77.24h-2a4.71,4.71,0,0,0,.93,3,3.55,3.55,0,0,0,2.19,1.1v3.13a7.9,7.9,0,0,1-2.93-.68A4.28,4.28,0,0,1,23.16,131.68ZM20.67,141a1.31,1.31,0,0,1-.93-.32,1.15,1.15,0,0,1-.33-.88v-5.06h3.88V138h9.79v1.77a1.13,1.13,0,0,1-.35.88,1.33,1.33,0,0,1-.93.32ZM33,134.57a1.19,1.19,0,0,1-.4.94,1.54,1.54,0,0,1-1.07.36H29.16V130h-1.3a1,1,0,0,1-.78-.29,1,1,0,0,1-.3-.77v-1.58h2.38v-3.9H33Z"/><path class="cls-1" d="M39.77,123.51v6h1.49v-6h3.88v16a1.31,1.31,0,0,1-.34,1,1.38,1.38,0,0,1-1,.33H37.24a1.38,1.38,0,0,1-1-.33,1.31,1.31,0,0,1-.34-1v-16Zm1.49,14.39v-5.36H39.77v5.36Zm8.64-8.52h2.64v2.09a1,1,0,0,1-.41.93,1.85,1.85,0,0,1-1.09.29H49.9v5.78A2.46,2.46,0,0,1,47.42,141H46V123.46H49.9Z"/><path class="cls-1" d="M59.62,137.94V135.6H63.5v2.34h5.92v1.54a1.32,1.32,0,0,1-.42,1,1.56,1.56,0,0,1-1.08.38H54.71a1.56,1.56,0,0,1-1.07-.38,1.29,1.29,0,0,1-.43-1v-1.54Zm8.78-8.2a1,1,0,0,1-.26.78,1.21,1.21,0,0,1-.81.23H58v1.33H68.78v1.86a1,1,0,0,1-.29.81,1.22,1.22,0,0,1-.84.26H55.23a1.22,1.22,0,0,1-.84-.26,1,1,0,0,1-.29-.81V127.8H64.51v-1.32H55.13a1.21,1.21,0,0,1-.81-.22,1,1,0,0,1-.25-.79v-2H68.4Z"/><path class="cls-1" d="M74,123.86V122.3h3.84v1.56h3.28v1.82a1,1,0,0,1-.28.8,1.18,1.18,0,0,1-.83.25H71.55a1.17,1.17,0,0,1-.82-.25,1,1,0,0,1-.28-.8v-1.82Zm-3.2,5.93a2.74,2.74,0,0,1,.64-1.85,2.44,2.44,0,0,1,2-.75h5a2.4,2.4,0,0,1,2,.75,2.78,2.78,0,0,1,.63,1.85v1.81a2.84,2.84,0,0,1-.63,1.87,2.4,2.4,0,0,1-2,.76h-5a2.44,2.44,0,0,1-2-.76,2.79,2.79,0,0,1-.64-1.87ZM73,141a1.29,1.29,0,0,1-.92-.32,1.12,1.12,0,0,1-.34-.88V134.7h3.89V138h9.78v1.77a1.13,1.13,0,0,1-.35.88,1.3,1.3,0,0,1-.93.32Zm4.11-10.17c0-.21-.06-.34-.17-.39a1.07,1.07,0,0,0-.48-.08h-1a1.55,1.55,0,0,0-.55.08.36.36,0,0,0-.24.39.42.42,0,0,0,.24.44,1.35,1.35,0,0,0,.55.1h1a.93.93,0,0,0,.48-.1C77.07,131.16,77.13,131,77.13,130.78Zm8.22-3.73h2.51v2.17a1,1,0,0,1-.35.86,1.57,1.57,0,0,1-1,.27H85.35v4.2a1.16,1.16,0,0,1-.4.94,1.53,1.53,0,0,1-1.06.36h-2.4V123.46h3.86Z"/><path class="cls-1" d="M103.39,138.26a2.47,2.47,0,0,1-.9,2.05,3.59,3.59,0,0,1-2.26.71h-8.1a3.58,3.58,0,0,1-2.25-.71,2.45,2.45,0,0,1-.91-2.05v-2a2.45,2.45,0,0,1,.91-2.05,3.52,3.52,0,0,1,2.25-.71h8.1a3.53,3.53,0,0,1,2.26.71,2.47,2.47,0,0,1,.9,2.05ZM92.85,123.5v1.78h1.71V123.5h3.85v8.37a1,1,0,0,1-.28.8,1.23,1.23,0,0,1-.83.25H90.09a1.25,1.25,0,0,1-.83-.25,1,1,0,0,1-.27-.8V123.5Zm0,6.47h1.71v-1.72H92.85Zm6.66,7.19a.76.76,0,0,0-.17-.5,1.15,1.15,0,0,0-.78-.19H93.8a1.14,1.14,0,0,0-.77.19.71.71,0,0,0-.18.5v.13a.7.7,0,0,0,.18.5,1.14,1.14,0,0,0,.77.19h4.76a1.15,1.15,0,0,0,.78-.19.74.74,0,0,0,.17-.5Zm3.56-10.71h2.51v2.16a1,1,0,0,1-.35.86,1.58,1.58,0,0,1-1,.27h-1.18v2a1.22,1.22,0,0,1-.4.94,1.58,1.58,0,0,1-1.07.35H99.21v-9.59h3.86Z"/><path class="cls-1" d="M110.89,123.5v1.78h1.71V123.5h3.85v1.29h1.29v-1.33h3.86v8.31a1.2,1.2,0,0,1-.4.95,1.56,1.56,0,0,1-1.06.35h-2.4v-1.49h-1.29v.29a1,1,0,0,1-.28.8,1.23,1.23,0,0,1-.83.25h-7.21a1.25,1.25,0,0,1-.83-.25,1,1,0,0,1-.27-.8V123.5Zm10.92,14.76a2.47,2.47,0,0,1-.9,2.05,3.57,3.57,0,0,1-2.26.71h-8.1a3.58,3.58,0,0,1-2.25-.71,2.45,2.45,0,0,1-.91-2.05v-2a2.45,2.45,0,0,1,.91-2.05,3.52,3.52,0,0,1,2.25-.71h8.1a3.51,3.51,0,0,1,2.26.71,2.47,2.47,0,0,1,.9,2.05ZM110.89,130h1.71v-1.72h-1.71Zm7,7.19a.76.76,0,0,0-.17-.5,1.15,1.15,0,0,0-.78-.19h-4.76a1.14,1.14,0,0,0-.77.19.71.71,0,0,0-.18.5v.13a.7.7,0,0,0,.18.5,1.14,1.14,0,0,0,.77.19H117a1.15,1.15,0,0,0,.78-.19.74.74,0,0,0,.17-.5Zm-1.48-9.52v1.11h1.29v-1.11Z"/><path class="cls-1" d="M133.23,131a9.26,9.26,0,0,0,1.19-.08,4.29,4.29,0,0,0,.83-.17V133a5.25,5.25,0,0,1-.88.17,9.85,9.85,0,0,1-1.25.08h-2v1.18a.93.93,0,0,1-.29.74,1.33,1.33,0,0,1-.87.25h-2.7v-2.17h-1.83a1.45,1.45,0,0,1-1-.33A1.14,1.14,0,0,1,124,132V131Zm-5.46-.42a3.59,3.59,0,0,1-2.53-.77,2.55,2.55,0,0,1-.82-1.94v-2a2.5,2.5,0,0,1,.82-1.94,3.59,3.59,0,0,1,2.53-.77h3.67a3.59,3.59,0,0,1,2.53.77,2.5,2.5,0,0,1,.82,1.94v2a2.55,2.55,0,0,1-.82,1.94,3.59,3.59,0,0,1-2.53.77ZM126.91,141a1.29,1.29,0,0,1-.92-.32,1.15,1.15,0,0,1-.33-.88v-3.9h3.88V138h10v1.77a1.16,1.16,0,0,1-.34.88,1.34,1.34,0,0,1-.94.32Zm3.22-13.19a1,1,0,0,0,.72-.2.7.7,0,0,0,.17-.49v-.53a.72.72,0,0,0-.17-.49,1,1,0,0,0-.72-.19h-1a1,1,0,0,0-.72.19.77.77,0,0,0-.17.49v.53a.75.75,0,0,0,.17.49,1,1,0,0,0,.72.2Zm9.34,7.57a1.16,1.16,0,0,1-.4.94,1.51,1.51,0,0,1-1.06.36h-2.34v-.8H133a1.06,1.06,0,0,1-.78-.3,1,1,0,0,1-.3-.77v-1.14h3.71V123.44h3.8Z"/><path class="cls-2" d="M114.49,19.55a39.09,39.09,0,0,0-39.1,39.1V78.2a19.55,19.55,0,0,0,39.1,0Z"/><path class="cls-1" d="M26.52,68.42a39.09,39.09,0,0,0,39.09,39.1v-88a19.55,19.55,0,1,0-39.09,0Z"/><path class="cls-2" d="M14.56,146.77a1,1,0,0,1,1,1,.52.52,0,0,1-.44.55,1.45,1.45,0,0,1,.73.46A1.58,1.58,0,0,1,16.3,150a1.74,1.74,0,0,1-.51,1.26,1.38,1.38,0,0,1-1,.5H13.56v-5Zm-.36.64v.79h.41a.44.44,0,0,0,.25-.11.38.38,0,0,0,.11-.28.36.36,0,0,0-.12-.28.37.37,0,0,0-.29-.12Zm0,1.45v2.22h.63a.93.93,0,0,0,.49-.32,1.14,1.14,0,0,0,.32-.8,1.06,1.06,0,0,0-.32-.78,1.1,1.1,0,0,0-.78-.32Z"/><path class="cls-2" d="M18.85,146.77l1.8,5H20L19.33,150H18l-.63,1.75H16.7l1.8-5Zm.25,2.56-.42-1.16-.42,1.16Z"/><path class="cls-2" d="M22.5,150.14h-.58v1.59h-.65v-5h1.41a1.71,1.71,0,0,1,1,.5,1.6,1.6,0,0,1,.49,1.18,1.63,1.63,0,0,1-.49,1.2,1.26,1.26,0,0,1-.52.38l1.1,1.7h-.78Zm-.58-2.72v2.08h.58a1,1,0,0,0,.73-.31,1,1,0,0,0-.73-1.77Z"/><path class="cls-2" d="M29.15,147.45a2.53,2.53,0,1,1-1.79-.74A2.43,2.43,0,0,1,29.15,147.45Zm-1.79-.09A1.88,1.88,0,0,0,26,150.58a1.8,1.8,0,0,0,1.33.56,1.84,1.84,0,0,0,1.34-.56,1.89,1.89,0,0,0-1.34-3.22Z"/><path class="cls-2" d="M33.59,149.68v2H33v-5h.64V149h1.53v-2.27h.64v5h-.64v-2Z"/><path class="cls-2" d="M40.94,147.45a2.55,2.55,0,1,1-1.79-.74A2.46,2.46,0,0,1,40.94,147.45Zm-1.79-.09a1.89,1.89,0,0,0-1.34,3.22,1.84,1.84,0,0,0,1.34.56,1.89,1.89,0,0,0,0-3.78Z"/><path class="cls-2" d="M43.8,149.19a2.1,2.1,0,0,1-.85-.51,1.07,1.07,0,0,1-.33-.81,1.16,1.16,0,0,1,2-.81,1.41,1.41,0,0,1,.32.59l-.58.23a1.43,1.43,0,0,0-.19-.38.57.57,0,0,0-.37-.14.5.5,0,0,0-.37.15.49.49,0,0,0-.15.36.5.5,0,0,0,.15.37,1.82,1.82,0,0,0,.47.31,2.36,2.36,0,0,1,1,.59,1.53,1.53,0,0,1,0,2.19,1.55,1.55,0,0,1-2.18,0,1.7,1.7,0,0,1-.46-1l.62-.23a1.32,1.32,0,0,0,.29.78.92.92,0,0,0,1.28,0,.91.91,0,0,0,0-1.29A1.89,1.89,0,0,0,43.8,149.19Z"/><path class="cls-2" d="M46.59,150.14v1.59H46v-5h1.4a1.71,1.71,0,0,1,1,.5,1.61,1.61,0,0,1,.5,1.18,1.64,1.64,0,0,1-.5,1.2,1.59,1.59,0,0,1-1.19.49Zm0-2.72v2.08h.58a1,1,0,0,0,.74-.31,1.05,1.05,0,0,0,0-1.47,1,1,0,0,0-.74-.3Z"/><path class="cls-2" d="M50.2,146.77v5h-.64v-5Z"/><path class="cls-2" d="M52.68,147.41v4.32H52v-4.32H50.88v-.64h3v.64Z"/><path class="cls-2" d="M56.07,146.77l1.8,5h-.68L56.55,150H55.24l-.64,1.75h-.68l1.8-5Zm.25,2.56-.42-1.16-.42,1.16Z"/><path class="cls-2" d="M58.49,151.73v-5h.64v4.31h1.78v.65Z"/><path class="cls-2" d="M65.42,148.28a1.76,1.76,0,0,1,1.76,1.77,1.76,1.76,0,1,1-3.52,0,1.76,1.76,0,0,1,1.76-1.77Zm-.78,1a1,1,0,0,0-.33.78,1.11,1.11,0,0,0,1.11,1.1,1.1,1.1,0,0,0,.78-.32,1.06,1.06,0,0,0,.32-.78,1,1,0,0,0-.32-.78,1.07,1.07,0,0,0-.78-.33A1,1,0,0,0,64.64,149.27Z"/><path class="cls-2" d="M68.67,149.18v2.55H68v-2.55h-.28v-.64H68V148a1.05,1.05,0,0,1,.31-.69A1,1,0,0,1,69,147a2,2,0,0,1,.58.14l-.21.6a1.63,1.63,0,0,0-.34-.11.34.34,0,0,0-.25.11.32.32,0,0,0-.11.24v.55h.57v.64Z"/><path class="cls-2" d="M72.7,149.39v2.34h-.64v-5h.64v1.56l1.17-1.56h.81l-1.52,2,1.89,2.92h-.78l-1.53-2.39Z"/><path class="cls-2" d="M79.76,147.45a2.55,2.55,0,1,1-1.8-.74A2.46,2.46,0,0,1,79.76,147.45Zm-1.8-.09a1.89,1.89,0,0,0-1.33,3.22,1.87,1.87,0,0,0,2.67,0A1.89,1.89,0,0,0,78,147.36Z"/><path class="cls-2" d="M82.58,150.14H82v1.59h-.64v-5h1.4a1.71,1.71,0,0,1,1,.5,1.61,1.61,0,0,1,.5,1.18,1.64,1.64,0,0,1-.5,1.2,1.2,1.2,0,0,1-.52.38l1.1,1.7h-.78ZM82,147.42v2.08h.58a1,1,0,0,0,.74-.31,1.05,1.05,0,0,0,0-1.47,1,1,0,0,0-.74-.3Z"/><path class="cls-2" d="M87.65,146.77v.64h-2v1.52h2v.64h-2v1.51h2v.65H85v-5Z"/><path class="cls-2" d="M90.35,146.77l1.8,5h-.68L90.83,150H89.51l-.63,1.75H88.2l1.8-5Zm.25,2.56-.43-1.16-.42,1.16Z"/><path class="cls-2" d="M92.77,146.77h.58l2.05,3.54v-3.54H96v5h-.56l-2.07-3.58v3.58h-.64Z"/><path class="cls-2" d="M99.9,146.77l1.61,2.78,1.6-2.78h.59v5h-.65v-3.58l-1.54,2.68L100,148.15v3.58h-.64v-5Z"/><path class="cls-2" d="M107.45,146.77v.64h-2v1.52h2v.64h-2v1.51h2v.65h-2.67v-5Z"/><path class="cls-2" d="M108.77,146.77a2.59,2.59,0,0,1,1.88.69,2.53,2.53,0,0,1,0,3.58,2.51,2.51,0,0,1-1.88.69h-.47v-5Zm.17.66v3.65a1.7,1.7,0,0,0,1.25-.49,1.84,1.84,0,0,0,.56-1.34,1.81,1.81,0,0,0-.56-1.33A1.66,1.66,0,0,0,108.94,147.43Z"/><path class="cls-2" d="M112.87,146.77v5h-.64v-5Z"/><path class="cls-2" d="M117.7,150.55l.48.43a2.76,2.76,0,0,1-1.86.8,2.53,2.53,0,1,1,0-5.06,2.76,2.76,0,0,1,1.86.8l-.48.44a2,2,0,0,0-1.38-.59,1.88,1.88,0,0,0-1.88,1.88,1.88,1.88,0,0,0,1.88,1.89A2.07,2.07,0,0,0,117.7,150.55Z"/><path class="cls-2" d="M119.66,146.77v5H119v-5Z"/><path class="cls-2" d="M120.65,146.77h.59l2,3.54v-3.54h.64v5h-.56l-2.07-3.58v3.58h-.64Z"/><path class="cls-2" d="M127.52,146.77v.64h-2v1.52h2v.64h-2v1.51h2v.65h-2.67v-5Z"/></g></g></svg>